<svg width="11" height="11" viewBox="0 0 11 11" fill="none" xmlns="http://www.w3.org/2000/svg">
<g clip-path="url(#clip0_252_295)">
<path d="M5.5 10C7.98528 10 10 7.98528 10 5.5C10 3.01472 7.98528 1 5.5 1C3.01472 1 1 3.01472 1 5.5C1 7.98528 3.01472 10 5.5 10Z" stroke="#2A2A2A" stroke-linecap="round" stroke-linejoin="round"/>
<path d="M5.5 8C6.88071 8 8 6.88071 8 5.5C8 4.11929 6.88071 3 5.5 3C4.11929 3 3 4.11929 3 5.5C3 6.88071 4.11929 8 5.5 8Z" stroke="#2A2A2A" stroke-linecap="round" stroke-linejoin="round"/>
<path d="M5.5 6C5.77614 6 6 5.77614 6 5.5C6 5.22386 5.77614 5 5.5 5C5.22386 5 5 5.22386 5 5.5C5 5.77614 5.22386 6 5.5 6Z" stroke="#2A2A2A" stroke-linecap="round" stroke-linejoin="round"/>
</g>
<defs>
<clipPath id="clip0_252_295">
<rect width="11" height="11" fill="white"/>
</clipPath>
</defs>
</svg>
